<?xml version="1.0" encoding="UTF-8" standalone="no" ?>
<!DOCTYPE svg PUBLIC "-//W3C//DTD SVG 1.1//EN" "http://www.w3.org/Graphics/SVG/1.1/DTD/svg11.dtd">
<svg xmlns="http://www.w3.org/2000/svg" xmlns:xlink="http://www.w3.org/1999/xlink" version="1.1" width="400" height="400" viewBox="0 0 400 400" xml:space="preserve">
<desc>Created with Fabric.js 3.6.2</desc>
<defs>
</defs>
<g transform="matrix(12.5 0 0 12.5 200 200)" id="Layer_1"  >
<path style="stroke: none; stroke-width: 1; stroke-dasharray: none; stroke-linecap: butt; stroke-dashoffset: 0; stroke-linejoin: miter; stroke-miterlimit: 4; fill: rgb(92,107,192); fill-rule: nonzero; opacity: 1;"  transform=" translate(-8, -7.83)" d="M 7.999 0 C 3.582 0 0 3.596 0 8.032 a 8.031 8.031 0 0 0 5.472 7.621 c 0.4 0.074 0.546 -0.174 0.546 -0.387 c 0 -0.191 -0.007 -0.696 -0.011 -1.366 c -2.225 0.485 -2.695 -1.077 -2.695 -1.077 c -0.363 -0.928 -0.888 -1.175 -0.888 -1.175 c -0.727 -0.498 0.054 -0.488 0.054 -0.488 c 0.803 0.057 1.225 0.828 1.225 0.828 c 0.714 1.227 1.873 0.873 2.329 0.667 c 0.072 -0.519 0.279 -0.873 0.508 -1.074 c -1.776 -0.203 -3.644 -0.892 -3.644 -3.969 c 0 -0.877 0.312 -1.594 0.824 -2.156 c -0.083 -0.203 -0.357 -1.02 0.078 -2.125 c 0 0 0.672 -0.216 2.2 0.823 a 7.633 7.633 0 0 1 2.003 -0.27 a 7.65 7.65 0 0 1 2.003 0.271 c 1.527 -1.039 2.198 -0.823 2.198 -0.823 c 0.436 1.106 0.162 1.922 0.08 2.125 c 0.513 0.562 0.822 1.279 0.822 2.156 c 0 3.085 -1.87 3.764 -3.652 3.963 c 0.287 0.248 0.543 0.738 0.543 1.487 c 0 1.074 -0.01 1.94 -0.01 2.203 c 0 0.215 0.144 0.465 0.55 0.386 A 8.032 8.032 0 0 0 16 8.032 C 16 3.596 12.418 0 7.999 0 z" stroke-linecap="round" />
</g>
</svg>