<?xml version="1.0" encoding="UTF-8" standalone="no" ?>
<!DOCTYPE svg PUBLIC "-//W3C//DTD SVG 1.1//EN" "http://www.w3.org/Graphics/SVG/1.1/DTD/svg11.dtd">
<svg xmlns="http://www.w3.org/2000/svg" xmlns:xlink="http://www.w3.org/1999/xlink" version="1.1" width="400" height="400" viewBox="0 0 400 400" xml:space="preserve">
<desc>Created with Fabric.js 3.6.2</desc>
<defs>
</defs>
<g transform="matrix(12.5 0 0 12.5 200 200)" id="Layer_1"  >
<linearGradient id="SVGID_SVGID_1__1" gradientUnits="userSpaceOnUse" gradientTransform="matrix(1 0 0 1 0 0)"  x1="1.4645" y1="14.5355" x2="14.5355" y2="1.4645">
<stop offset="0%" style="stop-color:rgb(255,193,7);stop-opacity: 1"/>
<stop offset="50.739999999999995%" style="stop-color:rgb(244,67,54);stop-opacity: 1"/>
<stop offset="99.00999999999999%" style="stop-color:rgb(156,39,176);stop-opacity: 1"/>
</linearGradient>
<path style="stroke: none; stroke-width: 1; stroke-dasharray: none; stroke-linecap: butt; stroke-dashoffset: 0; stroke-linejoin: miter; stroke-miterlimit: 4; fill: url(#SVGID_SVGID_1__1); fill-rule: nonzero; opacity: 1;"  transform=" translate(-8, -8)" d="M 11 0 H 5 a 5 5 0 0 0 -5 5 v 6 a 5 5 0 0 0 5 5 h 6 a 5 5 0 0 0 5 -5 V 5 a 5 5 0 0 0 -5 -5 z m 3.5 11 c 0 1.93 -1.57 3.5 -3.5 3.5 H 5 c -1.93 0 -3.5 -1.57 -3.5 -3.5 V 5 c 0 -1.93 1.57 -3.5 3.5 -3.5 h 6 c 1.93 0 3.5 1.57 3.5 3.5 v 6 z" stroke-linecap="round" />
</g>
<g transform="matrix(12.5 0 0 12.5 200 200)" id="Layer_1"  >
<linearGradient id="SVGID_SVGID_2__2" gradientUnits="userSpaceOnUse" gradientTransform="matrix(1 0 0 1 0 0)"  x1="5.1716" y1="10.8284" x2="10.8284" y2="5.1716">
<stop offset="0%" style="stop-color:rgb(255,193,7);stop-opacity: 1"/>
<stop offset="50.739999999999995%" style="stop-color:rgb(244,67,54);stop-opacity: 1"/>
<stop offset="99.00999999999999%" style="stop-color:rgb(156,39,176);stop-opacity: 1"/>
</linearGradient>
<path style="stroke: none; stroke-width: 1; stroke-dasharray: none; stroke-linecap: butt; stroke-dashoffset: 0; stroke-linejoin: miter; stroke-miterlimit: 4; fill: url(#SVGID_SVGID_2__2); fill-rule: nonzero; opacity: 1;"  transform=" translate(-8, -8)" d="M 8 4 a 4 4 0 1 0 0 8 a 4 4 0 0 0 0 -8 z m 0 6.5 A 2.503 2.503 0 0 1 5.5 8 c 0 -1.379 1.122 -2.5 2.5 -2.5 s 2.5 1.121 2.5 2.5 c 0 1.378 -1.122 2.5 -2.5 2.5 z" stroke-linecap="round" />
</g>
<g transform="matrix(12.5 0 0 12.5 253.75 146.25)" id="Layer_1"  >
<linearGradient id="SVGID_SVGID_3__3" gradientUnits="userSpaceOnUse" gradientTransform="matrix(1 0 0 1 -12.3 -3.7)"  x1="11.9229" y1="4.0771" x2="12.6771" y2="3.3229">
<stop offset="0%" style="stop-color:rgb(255,193,7);stop-opacity: 1"/>
<stop offset="50.739999999999995%" style="stop-color:rgb(244,67,54);stop-opacity: 1"/>
<stop offset="99.00999999999999%" style="stop-color:rgb(156,39,176);stop-opacity: 1"/>
</linearGradient>
<circle style="stroke: none; stroke-width: 1; stroke-dasharray: none; stroke-linecap: butt; stroke-dashoffset: 0; stroke-linejoin: miter; stroke-miterlimit: 4; fill: url(#SVGID_SVGID_3__3); fill-rule: nonzero; opacity: 1;"  cx="0" cy="0" r="0.533" />
</g>
</svg>