<?xml version="1.0" encoding="UTF-8" standalone="no" ?>
<!DOCTYPE svg PUBLIC "-//W3C//DTD SVG 1.1//EN" "http://www.w3.org/Graphics/SVG/1.1/DTD/svg11.dtd">
<svg xmlns="http://www.w3.org/2000/svg" xmlns:xlink="http://www.w3.org/1999/xlink" version="1.1" width="400" height="400" viewBox="0 0 400 400" xml:space="preserve">
<desc>Created with Fabric.js 3.6.2</desc>
<defs>
</defs>
<g transform="matrix(12.5 0 0 12.5 200 200)" id="Layer_1"  >
<path style="stroke: none; stroke-width: 1; stroke-dasharray: none; stroke-linecap: butt; stroke-dashoffset: 0; stroke-linejoin: miter; stroke-miterlimit: 4; fill: rgb(76,175,80); fill-rule: nonzero; opacity: 1;"  transform=" translate(-8, -8)" d="M 8.002 0 h -0.004 C 3.587 0 0 3.588 0 8 a 7.94 7.94 0 0 0 1.523 4.689 l -0.997 2.972 l 3.075 -0.983 A 7.93 7.93 0 0 0 8.002 16 C 12.413 16 16 12.411 16 8 s -3.587 -8 -7.998 -8 z" stroke-linecap="round" />
</g>
<g transform="matrix(12.5 0 0 12.5 201.11 200.86)" id="Layer_1"  >
<path style="stroke: none; stroke-width: 1; stroke-dasharray: none; stroke-linecap: butt; stroke-dashoffset: 0; stroke-linejoin: miter; stroke-miterlimit: 4; fill: rgb(250,250,250); fill-rule: nonzero; opacity: 1;"  transform=" translate(-8.09, -8.07)" d="M 12.657 11.297 c -0.193 0.545 -0.959 0.997 -1.57 1.129 c -0.418 0.089 -0.964 0.16 -2.802 -0.602 c -2.351 -0.974 -3.865 -3.363 -3.983 -3.518 c -0.113 -0.155 -0.95 -1.265 -0.95 -2.413 s 0.583 -1.707 0.818 -1.947 c 0.193 -0.197 0.512 -0.287 0.818 -0.287 c 0.099 0 0.188 0.005 0.268 0.009 c 0.235 0.01 0.353 0.024 0.508 0.395 c 0.193 0.465 0.663 1.613 0.719 1.731 c 0.057 0.118 0.114 0.278 0.034 0.433 c -0.075 0.16 -0.141 0.231 -0.259 0.367 c -0.118 0.136 -0.23 0.24 -0.348 0.386 c -0.108 0.127 -0.23 0.263 -0.094 0.498 c 0.136 0.23 0.606 0.997 1.298 1.613 c 0.893 0.795 1.617 1.049 1.876 1.157 c 0.193 0.08 0.423 0.061 0.564 -0.089 c 0.179 -0.193 0.4 -0.513 0.625 -0.828 c 0.16 -0.226 0.362 -0.254 0.574 -0.174 c 0.216 0.075 1.359 0.64 1.594 0.757 c 0.235 0.118 0.39 0.174 0.447 0.273 c 0.056 0.099 0.056 0.564 -0.137 1.11 z" stroke-linecap="round" />
</g>
</svg>