<?xml version="1.0" encoding="UTF-8" standalone="no" ?>
<!DOCTYPE svg PUBLIC "-//W3C//DTD SVG 1.1//EN" "http://www.w3.org/Graphics/SVG/1.1/DTD/svg11.dtd">
<svg xmlns="http://www.w3.org/2000/svg" xmlns:xlink="http://www.w3.org/1999/xlink" version="1.1" width="400" height="400" viewBox="0 0 400 400" xml:space="preserve">
<desc>Created with Fabric.js 3.6.2</desc>
<defs>
</defs>
<g transform="matrix(0.39 0 0 0.39 200 200)" id="Layer_1"  >
<path style="stroke: none; stroke-width: 1; stroke-dasharray: none; stroke-linecap: butt; stroke-dashoffset: 0; stroke-linejoin: miter; stroke-miterlimit: 4; fill: rgb(32,158,72); fill-rule: nonzero; opacity: 1;"  transform=" translate(-256, -256)" d="M 512 397.1 c 0 63.5 -51.5 114.9 -114.9 114.9 H 114.9 C 51.5 512 0 460.5 0 397.1 V 114.9 C 0 51.5 51.5 0 114.9 0 h 282.2 C 460.5 0 512 51.5 512 114.9 V 397.1 z" stroke-linecap="round" />
</g>
<g transform="matrix(0.39 0 0 0.39 200.01 199.98)" id="Layer_1"  >
<path style="stroke: none; stroke-width: 1; stroke-dasharray: none; stroke-linecap: butt; stroke-dashoffset: 0; stroke-linejoin: miter; stroke-miterlimit: 4; fill: rgb(255,255,255); fill-rule: evenodd; opacity: 1;"  transform=" translate(-256.03, -255.96)" d="M 125.8 386.9 c 1.5 -5.7 2.7 -10.6 4.1 -15.5 c 4.3 -15.7 8.7 -31.4 12.8 -47.2 c 0.6 -2.3 0.3 -5.5 -0.8 -7.6 c -40 -76.2 1.3 -168.3 85.1 -188 c 76.1 -17.9 144.6 33.5 157.1 102.2 c 13 71.7 -33.9 139.7 -105 152.2 c -28.3 4.9 -55.3 0.7 -81.1 -11.8 c -2.3 -1.1 -5.5 -1.4 -8 -0.8 C 155.6 379.1 132.7 385.5 125.8 386.9 z M 156 357.1 c 12.9 -3.4 24.8 -6.4 36.7 -9.7 c 3.3 -0.9 5.9 -0.4 8.9 1.3 c 22.3 12.9 46.3 17.7 71.9 13.6 c 58.9 -9.4 99.3 -64.6 90.3 -123.3 c -9.4 -60.9 -66.4 -101.7 -126.7 -90.6 c -72.9 13.4 -111.7 94.7 -75.4 159.1 c 4 7.1 5.1 13 2.4 20.6 C 160.8 337.2 158.8 346.7 156 357.1 z" stroke-linecap="round" />
</g>
<g transform="matrix(0.39 0 0 0.39 200.07 200.05)" id="Layer_1"  >
<path style="stroke: none; stroke-width: 1; stroke-dasharray: none; stroke-linecap: butt; stroke-dashoffset: 0; stroke-linejoin: miter; stroke-miterlimit: 4; fill: rgb(255,255,255); fill-rule: evenodd; opacity: 1;"  transform=" translate(-256.17, -256.13)" d="M 290.2 317.2 c -25.4 -0.9 -65.7 -20.9 -93.4 -69 c -9.8 -17.1 -8.4 -36.5 6 -49.9 c 4.9 -4.5 11 -3.4 16.7 -2.5 c 1.4 0.2 2.9 2.4 3.6 4 c 3.7 8.4 7.3 16.8 10.5 25.3 c 1.7 4.6 -1.4 8.8 -8 16.3 c -2.1 2.4 -2.5 4.6 -0.9 7.4 c 10.6 18 25.5 31.1 45 38.7 c 2.9 1.1 5 0.4 6.8 -1.8 c 10.4 -12.6 11.4 -16.3 16.9 -13.8 c 26.2 12.6 28.3 13.1 28.4 16 C 322.8 310.2 302.5 318.1 290.2 317.2 z" stroke-linecap="round" />
</g>
</svg>