<?xml version="1.0" encoding="UTF-8" standalone="no" ?>
<!DOCTYPE svg PUBLIC "-//W3C//DTD SVG 1.1//EN" "http://www.w3.org/Graphics/SVG/1.1/DTD/svg11.dtd">
<svg xmlns="http://www.w3.org/2000/svg" xmlns:xlink="http://www.w3.org/1999/xlink" version="1.1" width="400" height="400" viewBox="0 0 400 400" xml:space="preserve">
<desc>Created with Fabric.js 3.6.2</desc>
<defs>
</defs>
<g transform="matrix(12.5 0 0 12.5 200 200)" id="Layer_1"  >
<path style="stroke: none; stroke-width: 1; stroke-dasharray: none; stroke-linecap: butt; stroke-dashoffset: 0; stroke-linejoin: miter; stroke-miterlimit: 4; fill: rgb(30,136,229); fill-rule: nonzero; opacity: 1;"  transform=" translate(-8, -7.5)" d="M 7.828 12.026 h 0.956 s 0.289 -0.032 0.436 -0.191 c 0.136 -0.146 0.131 -0.42 0.131 -0.42 s -0.019 -1.283 0.577 -1.472 c 0.587 -0.186 1.341 1.24 2.14 1.789 c 0.604 0.415 1.063 0.324 1.063 0.324 l 2.137 -0.03 s 1.118 -0.069 0.588 -0.948 c -0.043 -0.072 -0.309 -0.65 -1.589 -1.838 c -1.34 -1.244 -1.16 -1.042 0.454 -3.193 c 0.983 -1.31 1.376 -2.11 1.253 -2.452 c -0.117 -0.326 -0.84 -0.24 -0.84 -0.24 l -2.404 0.014 s -0.178 -0.024 -0.311 0.055 c -0.129 0.078 -0.212 0.258 -0.212 0.258 s -0.381 1.014 -0.889 1.876 c -1.071 1.819 -1.5 1.915 -1.675 1.802 c -0.407 -0.263 -0.305 -1.058 -0.305 -1.622 c 0 -1.763 0.267 -2.498 -0.521 -2.688 c -0.262 -0.063 -0.454 -0.105 -1.123 -0.112 c -0.858 -0.009 -1.585 0.003 -1.996 0.204 c -0.274 0.134 -0.485 0.433 -0.356 0.45 c 0.159 0.021 0.519 0.097 0.71 0.357 c 0.247 0.335 0.238 1.089 0.238 1.089 s 0.142 2.075 -0.331 2.333 c -0.325 0.177 -0.77 -0.184 -1.725 -1.835 c -0.489 -0.845 -0.859 -1.78 -0.859 -1.78 s -0.071 -0.174 -0.198 -0.267 c -0.154 -0.113 -0.37 -0.149 -0.37 -0.149 l -2.286 0.014 s -0.343 0.01 -0.469 0.159 c -0.112 0.133 -0.009 0.407 -0.009 0.407 s 1.79 4.187 3.816 6.298 c 1.859 1.935 3.969 1.808 3.969 1.808 z" stroke-linecap="round" />
</g>
</svg>